<mxfile host="app.diagrams.net" agent="Mozilla/5.0 (X11; Linux x86_64) AppleWebKit/537.36 (KHTML, like Gecko) Chrome/138.0.0.0 Safari/537.36" version="28.1.0">
  <diagram name="Page-1" id="JYQE0di9spENp9dbGy2m">
    <mxGraphModel dx="1395" dy="895" grid="1" gridSize="10" guides="1" tooltips="1" connect="1" arrows="1" fold="1" page="1" pageScale="1" pageWidth="1600" pageHeight="1200" math="0" shadow="0">
      <root>
        <mxCell id="0" />
        <mxCell id="1" parent="0" />
        <mxCell id="djPQeR_S7TZcSXeFTLT--1" value="" style="edgeStyle=orthogonalEdgeStyle;rounded=1;orthogonalLoop=1;jettySize=auto;html=1;" parent="1" source="djPQeR_S7TZcSXeFTLT--2" target="djPQeR_S7TZcSXeFTLT--4" edge="1">
          <mxGeometry relative="1" as="geometry" />
        </mxCell>
        <mxCell id="djPQeR_S7TZcSXeFTLT--2" value="&lt;b&gt;&lt;font style=&quot;font-size: 18px;&quot;&gt;Binary Source&lt;/font&gt;&lt;/b&gt;" style="rounded=1;whiteSpace=wrap;html=1;" parent="1" vertex="1">
          <mxGeometry x="500" y="200" width="94" height="60" as="geometry" />
        </mxCell>
        <mxCell id="djPQeR_S7TZcSXeFTLT--3" value="" style="edgeStyle=orthogonalEdgeStyle;rounded=1;orthogonalLoop=1;jettySize=auto;html=1;" parent="1" source="djPQeR_S7TZcSXeFTLT--4" target="djPQeR_S7TZcSXeFTLT--6" edge="1">
          <mxGeometry relative="1" as="geometry" />
        </mxCell>
        <mxCell id="djPQeR_S7TZcSXeFTLT--4" value="&lt;b&gt;&lt;font style=&quot;font-size: 18px;&quot;&gt;Encoder&lt;/font&gt;&lt;/b&gt;" style="rounded=1;whiteSpace=wrap;html=1;" parent="1" vertex="1">
          <mxGeometry x="640" y="200" width="100" height="60" as="geometry" />
        </mxCell>
        <mxCell id="rYTjXqDwzyMRA8L_mNuI-3" value="" style="edgeStyle=orthogonalEdgeStyle;rounded=0;orthogonalLoop=1;jettySize=auto;html=1;" parent="1" source="djPQeR_S7TZcSXeFTLT--6" target="rYTjXqDwzyMRA8L_mNuI-1" edge="1">
          <mxGeometry relative="1" as="geometry" />
        </mxCell>
        <mxCell id="djPQeR_S7TZcSXeFTLT--6" value="&lt;font style=&quot;font-size: 18px;&quot;&gt;&lt;b&gt;QAM Mapper&lt;/b&gt;&lt;/font&gt;" style="rounded=1;whiteSpace=wrap;html=1;" parent="1" vertex="1">
          <mxGeometry x="814" y="200" width="120" height="60" as="geometry" />
        </mxCell>
        <mxCell id="djPQeR_S7TZcSXeFTLT--7" value="" style="edgeStyle=orthogonalEdgeStyle;rounded=1;orthogonalLoop=1;jettySize=auto;html=1;" parent="1" source="djPQeR_S7TZcSXeFTLT--9" target="djPQeR_S7TZcSXeFTLT--11" edge="1">
          <mxGeometry relative="1" as="geometry" />
        </mxCell>
        <mxCell id="djPQeR_S7TZcSXeFTLT--8" value="" style="edgeStyle=orthogonalEdgeStyle;rounded=1;orthogonalLoop=1;jettySize=auto;html=1;fillColor=#fff2cc;strokeColor=#808080;curved=0;endArrow=classic;endFill=1;strokeWidth=4;" parent="1" source="djPQeR_S7TZcSXeFTLT--9" edge="1">
          <mxGeometry relative="1" as="geometry">
            <mxPoint x="874" y="400" as="targetPoint" />
          </mxGeometry>
        </mxCell>
        <mxCell id="djPQeR_S7TZcSXeFTLT--9" value="&lt;span style=&quot;font-size: 18px;&quot;&gt;&lt;b&gt;Channel&lt;/b&gt;&lt;/span&gt;" style="rounded=1;whiteSpace=wrap;html=1;fillColor=#fff2cc;strokeColor=#d6b656;gradientColor=none;glass=0;shadow=1;" parent="1" vertex="1">
          <mxGeometry x="1087" y="310" width="206" height="60" as="geometry" />
        </mxCell>
        <mxCell id="djPQeR_S7TZcSXeFTLT--10" value="" style="edgeStyle=orthogonalEdgeStyle;rounded=1;orthogonalLoop=1;jettySize=auto;html=1;" parent="1" source="djPQeR_S7TZcSXeFTLT--11" edge="1">
          <mxGeometry relative="1" as="geometry">
            <mxPoint x="1190.0000000000005" y="490" as="targetPoint" />
          </mxGeometry>
        </mxCell>
        <mxCell id="djPQeR_S7TZcSXeFTLT--11" value="&lt;b&gt;&lt;font style=&quot;font-size: 18px;&quot;&gt;LS&lt;br&gt;Estimation&lt;/font&gt;&lt;/b&gt;" style="rounded=1;whiteSpace=wrap;html=1;" parent="1" vertex="1">
          <mxGeometry x="1130" y="400" width="120" height="60" as="geometry" />
        </mxCell>
        <mxCell id="djPQeR_S7TZcSXeFTLT--12" style="edgeStyle=orthogonalEdgeStyle;rounded=1;orthogonalLoop=1;jettySize=auto;html=1;exitX=0;exitY=0.5;exitDx=0;exitDy=0;curved=0;strokeWidth=2;" parent="1" source="djPQeR_S7TZcSXeFTLT--13" target="djPQeR_S7TZcSXeFTLT--15" edge="1">
          <mxGeometry relative="1" as="geometry" />
        </mxCell>
        <mxCell id="djPQeR_S7TZcSXeFTLT--13" value="&lt;font style=&quot;font-size: 18px;&quot;&gt;&lt;b&gt;LMMSE&amp;nbsp;&lt;br&gt;Equalizer&lt;/b&gt;&lt;/font&gt;" style="rounded=1;whiteSpace=wrap;html=1;" parent="1" vertex="1">
          <mxGeometry x="1130" y="490" width="120" height="60" as="geometry" />
        </mxCell>
        <mxCell id="djPQeR_S7TZcSXeFTLT--14" value="" style="edgeStyle=orthogonalEdgeStyle;rounded=1;orthogonalLoop=1;jettySize=auto;html=1;" parent="1" source="djPQeR_S7TZcSXeFTLT--15" target="djPQeR_S7TZcSXeFTLT--17" edge="1">
          <mxGeometry relative="1" as="geometry" />
        </mxCell>
        <mxCell id="djPQeR_S7TZcSXeFTLT--15" value="&lt;font style=&quot;font-size: 18px;&quot;&gt;&lt;b&gt;ESN&lt;br&gt;Demapper&lt;/b&gt;&lt;/font&gt;" style="rounded=1;whiteSpace=wrap;html=1;fillColor=#B9B9B9;arcSize=19;" parent="1" vertex="1">
          <mxGeometry x="814" y="400" width="120" height="60" as="geometry" />
        </mxCell>
        <mxCell id="djPQeR_S7TZcSXeFTLT--16" value="" style="edgeStyle=orthogonalEdgeStyle;rounded=1;orthogonalLoop=1;jettySize=auto;html=1;" parent="1" source="djPQeR_S7TZcSXeFTLT--17" target="djPQeR_S7TZcSXeFTLT--18" edge="1">
          <mxGeometry relative="1" as="geometry" />
        </mxCell>
        <mxCell id="djPQeR_S7TZcSXeFTLT--17" value="&lt;b&gt;&lt;font style=&quot;font-size: 18px;&quot;&gt;Decoder&lt;/font&gt;&lt;/b&gt;" style="rounded=1;whiteSpace=wrap;html=1;" parent="1" vertex="1">
          <mxGeometry x="640" y="400" width="100" height="60" as="geometry" />
        </mxCell>
        <mxCell id="djPQeR_S7TZcSXeFTLT--18" value="&lt;b&gt;&lt;font style=&quot;font-size: 18px;&quot;&gt;Compute&lt;/font&gt;&lt;/b&gt;&lt;div&gt;&lt;b&gt;&lt;font size=&quot;3&quot;&gt;BER&lt;/font&gt;&lt;/b&gt;&lt;/div&gt;" style="rounded=1;whiteSpace=wrap;html=1;" parent="1" vertex="1">
          <mxGeometry x="500" y="400" width="100" height="60" as="geometry" />
        </mxCell>
        <mxCell id="djPQeR_S7TZcSXeFTLT--19" value="System Model 1" style="text;html=1;align=center;verticalAlign=middle;whiteSpace=wrap;rounded=0;fontStyle=1;fontSize=19;" parent="1" vertex="1">
          <mxGeometry x="934" y="520" width="152" height="34" as="geometry" />
        </mxCell>
        <mxCell id="djPQeR_S7TZcSXeFTLT--20" value="&lt;b&gt;&lt;font style=&quot;font-size: 19px;&quot;&gt;System Model 2&lt;/font&gt;&lt;/b&gt;" style="text;html=1;align=center;verticalAlign=middle;whiteSpace=wrap;rounded=0;" parent="1" vertex="1">
          <mxGeometry x="872" y="370" width="206" as="geometry" />
        </mxCell>
        <mxCell id="rYTjXqDwzyMRA8L_mNuI-4" value="" style="edgeStyle=orthogonalEdgeStyle;rounded=0;orthogonalLoop=1;jettySize=auto;html=1;" parent="1" source="rYTjXqDwzyMRA8L_mNuI-1" target="rYTjXqDwzyMRA8L_mNuI-2" edge="1">
          <mxGeometry relative="1" as="geometry" />
        </mxCell>
        <mxCell id="rYTjXqDwzyMRA8L_mNuI-1" value="&lt;b&gt;&lt;font style=&quot;font-size: 14px;&quot;&gt;Pilot Insertion &amp;amp; OFDM Modulation (IFFT)&lt;/font&gt;&lt;/b&gt;" style="rounded=1;whiteSpace=wrap;html=1;" parent="1" vertex="1">
          <mxGeometry x="970" y="200" width="130" height="60" as="geometry" />
        </mxCell>
        <mxCell id="rYTjXqDwzyMRA8L_mNuI-14" value="" style="edgeStyle=orthogonalEdgeStyle;rounded=0;orthogonalLoop=1;jettySize=auto;html=1;" parent="1" source="rYTjXqDwzyMRA8L_mNuI-2" target="djPQeR_S7TZcSXeFTLT--9" edge="1">
          <mxGeometry relative="1" as="geometry" />
        </mxCell>
        <mxCell id="rYTjXqDwzyMRA8L_mNuI-2" value="&lt;font style=&quot;font-size: 14px;&quot;&gt;&lt;b&gt;Cyclic Prefix Addition &amp;amp; Nonlinear PA&lt;/b&gt;&lt;/font&gt;" style="rounded=1;whiteSpace=wrap;html=1;align=center;" parent="1" vertex="1">
          <mxGeometry x="1130" y="200" width="120" height="60" as="geometry" />
        </mxCell>
      </root>
    </mxGraphModel>
  </diagram>
</mxfile>
